PathFileType	4	(X/Y/Z)	C:\Users\Basilio\Documents\Thesis Gigler\squatting_fais\c3dfiles\019\SLS_front_pre2\markers_experimental.trc
DataRate	CameraRate	NumFrames	NumMarkers	Units	OrigDataRate	OrigDataStartFrame	OrigNumFrames
200.000000	200.000000	4	59	mm	200.000000	838	1677
Frame#	Time	FHD			LBHD			RBHD			C7			T10			CLAV			LSHO			LUUPA			LMUPA			LDUPA			LLEP			LMEP			LRAD			LUL			LRFIN			RSHO			RUPA1			RMUPA			RDUPA			RLEP			RMEP			RRAD			RUL			RUFIN			LASI			RASI			USACR			LSACR			RSACR			LTHI1			LTHI2			LTHI3			LTHI4			LLFC			LTIB1			LTIB2			LTIB3			LTIB4			LLMAL			LMMAL			LHEE			LMT1			LMT2			LMT5			RTHI2			RTHI3			RTHI4			RLFC			RTIB1			RTIB2			RTIB3			RTIB4			RLMAL			RMMAL			RHEE			RMT1			RMT2			RMT5			RTHI			
		X1	Y1	Z1	X2	Y2	Z2	X3	Y3	Z3	X4	Y4	Z4	X5	Y5	Z5	X6	Y6	Z6	X7	Y7	Z7	X8	Y8	Z8	X9	Y9	Z9	X10	Y10	Z10	X11	Y11	Z11	X12	Y12	Z12	X13	Y13	Z13	X14	Y14	Z14	X15	Y15	Z15	X16	Y16	Z16	X17	Y17	Z17	X18	Y18	Z18	X19	Y19	Z19	X20	Y20	Z20	X21	Y21	Z21	X22	Y22	Z22	X23	Y23	Z23	X24	Y24	Z24	X25	Y25	Z25	X26	Y26	Z26	X27	Y27	Z27	X28	Y28	Z28	X29	Y29	Z29	X30	Y30	Z30	X31	Y31	Z31	X32	Y32	Z32	X33	Y33	Z33	X34	Y34	Z34	X35	Y35	Z35	X36	Y36	Z36	X37	Y37	Z37	X38	Y38	Z38	X39	Y39	Z39	X40	Y40	Z40	X41	Y41	Z41	X42	Y42	Z42	X43	Y43	Z43	X44	Y44	Z44	X45	Y45	Z45	X46	Y46	Z46	X47	Y47	Z47	X48	Y48	Z48	X49	Y49	Z49	X50	Y50	Z50	X51	Y51	Z51	X52	Y52	Z52	X53	Y53	Z53	X54	Y54	Z54	X55	Y55	Z55	X56	Y56	Z56	X57	Y57	Z57	X58	Y58	Z58	X59	Y59	Z59	

839	4.19	-184.5654754638672	1457.730102539063	-628.0787353515626	-311.0083312988282	1434.769165039063	-774.5574340820315	-318.2285766601563	1427.246215820313	-634.9578857421876	-368.7283935546876	1284.4736328125	-696.3438110351564	-508.179656982422	1038.403686523438	-700.1998291015626	-246.155990600586	1203.32275390625	-704.4415283203126	-292.7327575683594	1280.311645507813	-824.670593261719	-177.3334503173828	1257.338989257813	-885.5349731445315	-150.928939819336	1243.769775390625	-847.3566894531252	-111.4362182617188	1252.29736328125	-891.3313598632815	-42.75606536865235	1228.218383789063	-931.4978027343752	-45.71195220947266	1168.572143554688	-926.7586669921877	209.2996673583985	1212.714233398438	-854.6939697265627	204.3132781982422	1224.214477539063	-921.861511230469	276.6744995117188	1236.445556640625	-850.8330688476565	-271.7281188964844	1275.334594726563	-586.9015502929689	-159.876937866211	1221.171997070313	-482.9754333496095	-136.7731170654297	1243.793579101563	-519.9199829101564	-90.76280212402345	1216.089477539063	-484.579559326172	-14.72339057922364	1213.905883789063	-499.6857910156251	-23.43556594848633	1153.65673828125	-507.8611145019532	218.627426147461	1226.931518554688	-596.9149780273439	231.9380645751954	1234.996826171875	-532.1323852539064	300.5529174804688	1247.364013671875	-604.6202392578126	-447.7319946289064	821.2777099609377	-823.743591308594	-437.7508544921876	801.258972167969	-619.0230102539064	-574.2924194335939	908.0745849609377	-710.7213134765626	-591.4490356445314	879.9304809570315	-737.6493530273439	-587.8492431640626	878.5191040039065	-681.5558471679689	-372.1417541503907	672.5657958984376	-927.161560058594	-286.6384582519532	678.4859619140626	-930.985290527344	-269.9887084960938	719.7188110351564	-911.7680664062502	-246.1369171142579	632.3359985351564	-924.3440551757815	-166.3768463134766	585.7575073242189	-907.0208129882815	-59.52769470214845	485.9850158691407	-881.6174316406252	-102.0168914794922	423.264129638672	-928.219665527344	-64.71378326416017	433.9475708007814	-908.1015625000002	-37.43952560424805	359.4748229980469	-871.9989013671877	-58.53292465209962	215.5596618652344	-887.1894531250002	-40.7383041381836	231.4972381591797	-810.7763671875002	-118.486801147461	180.6592102050782	-829.9952392578127	97.14237213134768	175.4608459472657	-825.9257812500002	98.82099914550784	170.311767578125	-864.7005004882815	54.66715240478517	136.3438110351563	-908.3911743164065	-351.1751403808594	642.8570556640626	-561.2050170898439	-337.5682067871094	670.8285522460939	-579.6732788085939	-306.3934936523438	572.8595581054689	-565.5006103515626	-221.6943511962891	453.5141906738282	-615.7451171875001	-225.8958129882813	290.6234130859376	-701.2168579101564	-301.2697143554688	226.3173828125001	-650.8100585937501	-270.2517089843751	213.1622467041016	-687.1779785156251	-299.2062683105469	191.334228515625	-733.1304931640626	-384.4019470214845	125.7503204345703	-691.8301391601564	-367.2675476074219	136.9622650146485	-768.871520996094	-456.1495361328126	106.876220703125	-749.4030151367189	-257.6680603027344	55.85235595703126	-774.4887695312502	-249.0096588134766	52.96821594238283	-732.2429809570314	-292.9179687500001	48.7076873779297	-674.3208007812501	-416.4998474121095	647.1987304687501	-549.0299682617189	
840	4.195	-184.23681640625	1456.560668945313	-628.1796264648439	-310.6997070312501	1433.656005859375	-774.4239501953127	-317.9302062988282	1426.121459960938	-634.9684448242189	-368.6329345703126	1283.617065429688	-696.3532714843751	-508.3259277343751	1037.62890625	-700.1196289062501	-244.3880157470704	1202.335815429688	-703.3751831054689	-292.5987548828126	1279.214111328125	-824.5278930664065	-177.1770629882813	1256.356079101563	-885.4091796875002	-151.0618896484375	1242.784912109375	-847.1135253906252	-111.250244140625	1251.266967773438	-891.079528808594	-42.49997329711915	1227.1689453125	-931.1843261718752	-45.6135597229004	1167.512817382813	-926.5408325195315	209.4508972167969	1211.525512695313	-854.3613891601565	204.9750061035157	1222.975708007813	-921.461364746094	276.8659973144532	1235.192016601563	-850.5612792968752	-271.1627807617188	1274.618530273438	-586.9427490234376	-159.6455688476563	1220.053344726563	-482.9067993164064	-136.3373565673828	1242.65625	-519.7375488281251	-90.53967285156251	1215.151245117188	-484.4510803222657	-14.60444831848145	1213.150634765625	-499.7530517578126	-23.41245269775391	1152.947021484375	-507.8495178222657	218.4805145263672	1226.216430664063	-596.2536621093751	232.0419464111329	1234.2646484375	-531.8482666015626	300.6789550781251	1246.675048828125	-604.4050903320314	-448.0692749023439	820.327575683594	-823.6785888671877	-438.1604919433595	800.412536621094	-619.0184326171876	-574.5980834960939	907.386169433594	-710.5823974609376	-592.1552124023439	879.2419433593752	-737.5589599609376	-588.1535644531251	877.735778808594	-681.5385131835939	-372.6725769042969	672.0993041992189	-927.283874511719	-287.0483398437501	677.8828125000001	-931.100769042969	-270.5888366699219	719.2059936523439	-912.057067871094	-246.5430450439454	631.8314819335939	-924.4427490234377	-166.5782623291016	585.3994750976564	-907.1789550781252	-59.81392669677736	485.7862854003907	-881.7183837890627	-102.2745132446289	422.918182373047	-928.2363281250002	-64.91842651367189	433.6390686035157	-908.1245727539065	-37.53131866455079	359.2543640136719	-871.9260864257815	-58.64510726928712	215.3064727783204	-886.9270019531252	-39.75642013549805	231.6154937744141	-809.8497314453127	-118.4951400756836	180.4196014404297	-829.6392211914065	97.38175964355472	175.6372680664063	-825.5014648437502	98.81565856933597	170.2668151855469	-864.4464111328127	54.5894012451172	136.2662658691407	-908.0867919921877	-351.4762573242188	642.5269775390626	-561.4069213867189	-337.9823303222657	670.3792724609376	-579.7999877929689	-306.5053710937501	572.4990234375001	-565.5886840820314	-221.4646148681641	453.3491516113282	-615.9111938476564	-225.880844116211	290.5681152343751	-701.3673706054689	-301.2473449707032	226.3509674072266	-650.8056030273439	-270.2933959960938	213.1307830810547	-687.2501831054689	-299.2364196777344	191.3253479003907	-733.1580810546876	-384.3684997558595	125.6843566894532	-691.6995849609376	-367.2268371582032	136.9108581542969	-768.8066406250002	-456.0716857910157	106.9070816040039	-749.3428955078126	-257.6815795898438	55.94285202026369	-774.5366210937502	-248.9516906738282	53.01333236694337	-732.3799438476564	-292.9277038574219	48.77709960937501	-674.3563842773439	-416.8426513671876	646.5650024414064	-549.0332641601564	
841	4.2	-183.9729309082032	1455.452514648438	-628.1884765625001	-310.4460754394532	1432.550903320313	-774.404724121094	-317.7110290527344	1424.958129882813	-634.9400634765626	-368.5411376953126	1282.70263671875	-696.2938232421876	-508.4674377441407	1036.75537109375	-700.0281982421876	-244.1766357421876	1201.182250976563	-703.3040771484376	-292.4618835449219	1278.241943359375	-824.4877929687502	-177.0890502929688	1255.33544921875	-885.2504882812502	-150.8759155273438	1241.747680664063	-846.9688720703127	-111.1029052734375	1250.162963867188	-890.788757324219	-42.40653228759766	1226.102172851563	-930.9525146484377	-45.42168426513673	1166.469360351563	-926.1992187500002	209.6112518310547	1210.435180664063	-854.0955810546877	205.0662689208985	1221.927612304688	-921.1563720703127	275.6857299804688	1234.125732421875	-850.3792724609377	-271.4990844726563	1273.325561523438	-586.8393554687501	-159.5434722900391	1219.327392578125	-482.7295837402345	-136.1173400878907	1241.647216796875	-519.7886352539064	-90.32098388671876	1214.01123046875	-484.3739318847657	-14.30609512329102	1212.198486328125	-499.6589965820314	-23.14068412780762	1151.941650390625	-507.681121826172	218.9111633300782	1225.372314453125	-596.1712036132814	232.1923980712891	1233.45458984375	-531.6508789062501	300.8006286621094	1245.90869140625	-604.2565917968751	-448.3769531250001	819.5382080078127	-823.5811767578127	-438.5374450683595	799.7151489257815	-618.9668579101564	-574.7936401367189	906.6204833984377	-710.5908203125001	-592.4929809570314	878.550720214844	-737.4801635742189	-588.1561279296876	876.9862060546877	-681.4876098632814	-373.2668762207032	671.4726562500001	-927.3438720703127	-287.4355773925782	677.2703247070314	-931.240417480469	-271.1481323242188	718.6892089843751	-912.2945556640627	-246.9881744384766	631.3336181640626	-924.6451416015627	-166.8726654052735	584.9292602539064	-907.3496093750002	-60.13748931884767	485.5032653808595	-881.8023681640627	-102.4970245361328	422.497039794922	-928.2028808593752	-65.13329315185548	433.2886047363282	-908.1355590820315	-37.66831588745118	358.9731140136719	-871.9187622070315	-58.70827484130861	215.0010986328126	-886.6707763671877	-39.95162963867188	231.4579315185547	-809.6719970703127	-118.5678100585938	180.0935516357422	-829.1893310546877	97.46647644042972	175.6181182861328	-825.106628417969	98.83052825927737	170.2154083251953	-864.1661376953127	54.50645828247072	136.0974884033203	-907.725280761719	-351.7351074218751	642.0316162109376	-561.4641113281251	-338.3113403320313	670.0015258789064	-579.8929443359376	-306.6076354980469	572.1314086914064	-565.6083374023439	-221.271957397461	453.2036437988282	-615.9346313476564	-225.7672576904297	290.5263366699219	-701.4207153320314	-301.2227783203126	226.3747863769532	-650.8222045898439	-270.2648925781251	213.0881652832032	-687.2647705078126	-299.2174377441407	191.2820281982422	-733.1954956054689	-384.4131469726564	125.6669998168946	-691.6936035156251	-367.3926696777344	136.9827423095703	-768.7529907226565	-456.1616210937501	106.9125747680664	-749.3190917968751	-257.6827087402344	56.00448989868165	-774.5225830078127	-249.0173950195313	53.02683258056642	-732.2620239257814	-292.8547973632813	48.7409133911133	-674.3974609375001	-417.2041931152345	645.9501953125001	-549.1251831054689	
842	4.205	-183.7256469726563	1454.351440429688	-628.2213134765626	-310.2671508789063	1431.344604492188	-774.4246826171877	-317.5233459472657	1423.78173828125	-634.8627319335939	-368.2740173339844	1281.525756835938	-696.0942993164064	-508.583221435547	1035.956176757813	-699.9072265625001	-244.2369689941407	1200.12744140625	-703.3103027343751	-292.3610229492188	1277.207275390625	-824.4007568359377	-177.0513458251953	1254.261596679688	-885.0283813476565	-150.6559448242188	1240.798706054688	-846.7596435546877	-111.0861892700196	1249.323608398438	-890.6250610351565	-42.36076354980469	1225.083374023438	-930.706726074219	-45.24998855590821	1165.408325195313	-925.752380371094	209.6074371337891	1209.303833007813	-853.812438964844	205.9869537353516	1220.87060546875	-920.543640136719	275.7738342285157	1232.941040039063	-850.0021972656252	-271.0111083984376	1272.564697265625	-587.1097412109376	-159.3270874023438	1218.31396484375	-482.7438049316407	-136.4246368408203	1240.903564453125	-520.1708374023439	-90.09499359130861	1213.241455078125	-484.5177612304689	-14.16697120666504	1211.284423828125	-499.5856018066407	-22.93682670593262	1150.982177734375	-507.6287841796876	219.4547729492188	1224.843994140625	-595.8197021484376	232.493637084961	1232.645141601563	-531.3679809570314	300.4983825683594	1245.47802734375	-604.3191528320314	-448.7185363769532	818.7875976562502	-823.5008544921877	-438.9245910644532	798.9239501953127	-618.9567260742189	-575.1383666992189	905.7407226562502	-710.4960327148439	-592.5245971679689	877.6627197265627	-737.3862915039064	-588.7224731445314	876.3150634765627	-681.2955322265626	-373.7614135742188	670.8036499023439	-927.434753417969	-287.7951049804688	676.6381225585939	-931.3686523437502	-271.6846008300782	718.2254028320314	-912.557312011719	-247.4070739746094	630.7864990234376	-924.7593383789065	-167.0889892578125	584.4822387695314	-907.5278930664065	-60.37968826293947	485.1795043945314	-881.9727783203127	-102.779541015625	422.1444396972657	-928.2365722656252	-65.38274383544923	432.929901123047	-908.1812744140627	-37.87080764770509	358.6751098632813	-871.8514404296877	-59.03929519653322	214.6990356445313	-886.4910278320315	-39.95323562622071	231.2021484375001	-809.4152832031252	-118.6124114990235	179.8802490234375	-828.6774902343752	97.38672637939456	175.5267181396485	-824.8421630859377	98.83391571044925	170.0434112548828	-863.8958129882815	54.53418731689455	135.874984741211	-907.2114868164065	-352.0958251953126	641.6607666015626	-561.5161132812501	-338.7057495117188	669.5404052734376	-579.9800415039064	-306.6369323730469	571.6982421875001	-565.7434692382814	-221.2041931152344	453.0674438476564	-615.9235229492189	-225.7458190917969	290.5046081542969	-701.4707641601564	-301.0940551757813	226.3451690673829	-650.7879028320314	-270.2976684570313	213.1531677246094	-687.2178955078126	-299.2025146484376	191.2300720214844	-733.1564331054689	-384.4602661132814	125.6763534545899	-691.6446533203126	-367.3903198242188	137.0030059814453	-768.7264404296877	-456.1054077148439	106.955062866211	-749.3087768554689	-257.2744140625001	55.6565284729004	-774.4715576171877	-249.1018829345704	53.02109909057619	-732.4489746093751	-292.9191894531251	48.74282455444337	-674.4160156250001	-417.476531982422	645.3405761718751	-549.1515502929689	
